<?xml version="1.0" encoding="utf-8"?>
<!-- Generator: Adobe Illustrator 23.0.3, SVG Export Plug-In . SVG Version: 6.00 Build 0)  -->
<svg version="1.1" id="Layer_1" xmlns="http://www.w3.org/2000/svg" xmlns:xlink="http://www.w3.org/1999/xlink" x="0px" y="0px"
	 viewBox="0 0 287.53 96.32" style="enable-background:new 0 0 287.53 96.32;" xml:space="preserve">
<style type="text/css">
	.st0{fill:#142032;}
</style>
<g>
	<g>
		<path class="st0" d="M0.17,0.16h43.48v10.87H27.61v49.52H16.22V11.03H0.17V0.16z"/>
		<path class="st0" d="M53.39,0.16h38.13v10.87H64.78v13.8h25.71V35.7H64.78v13.98h27.78v10.87H53.39V0.16z"/>
		<path class="st0" d="M101.08,0.16h43.48v10.87h-16.05v49.52h-11.39V11.03h-16.05V0.16H101.08z"/>
		<path class="st0" d="M194.76,60.55h-11.39V42.44c0-1.38-0.36-2.5-1.08-3.36s-1.91-1.29-3.58-1.29H165.6v22.77h-11.39V0.16h23.12
			c3.11,0,5.84,0.43,8.2,1.29s4.33,2.06,5.91,3.58c1.58,1.53,2.79,3.3,3.62,5.31s1.25,4.17,1.25,6.47v2.07
			c0,2.47-0.66,4.79-1.98,6.95c-1.32,2.16-3.36,3.81-6.13,4.96v1.55c2.01,0.23,3.61,1.01,4.79,2.33c1.18,1.32,1.77,2.99,1.77,5
			V60.55L194.76,60.55z M165.59,26.91h10.87c2.76,0,4.86-0.65,6.3-1.94c1.44-1.29,2.16-3.12,2.16-5.48v-1.03
			c0-2.01-0.72-3.75-2.16-5.22s-3.54-2.2-6.3-2.2h-10.87V26.91z"/>
		<path class="st0" d="M217.47,0.16v60.39h-11.39V0.16H217.47z"/>

			<rect x="252.01" y="24.81" transform="matrix(0.7071 -0.7071 0.7071 0.7071 54.0371 190.8479)" class="st0" width="10.77" height="10.77"/>
		<g>

				<rect x="235.02" y="-0.08" transform="matrix(0.7071 -0.7071 0.7071 0.7071 61.1193 173.8181)" class="st0" width="10.72" height="26.42"/>

				<rect x="261.2" y="7.77" transform="matrix(0.7071 -0.7071 0.7071 0.7071 71.0895 197.8815)" class="st0" width="26.42" height="10.72"/>

				<rect x="269.04" y="34.06" transform="matrix(0.7071 -0.7071 0.7071 0.7071 46.9453 207.8748)" class="st0" width="10.72" height="26.42"/>

				<rect x="227.17" y="41.9" transform="matrix(0.7071 -0.7071 0.7071 0.7071 36.9876 183.8134)" class="st0" width="26.42" height="10.72"/>
		</g>
	</g>
	<g>
		<path class="st0" d="M0,86.61c0-1.99,0.5-3.53,1.5-4.63s2.39-1.65,4.16-1.65s3.16,0.55,4.16,1.65s1.5,2.64,1.5,4.63v3.42
			c0,2.05-0.5,3.61-1.5,4.67s-2.39,1.6-4.16,1.6S2.5,95.77,1.5,94.7S0,92.09,0,90.04V86.61z M5.66,93.68c0.53,0,0.97-0.08,1.32-0.25
			s0.64-0.41,0.86-0.71c0.22-0.31,0.37-0.67,0.46-1.1c0.09-0.42,0.13-0.89,0.13-1.4v-3.78c0-0.48-0.05-0.94-0.15-1.36
			c-0.1-0.43-0.26-0.79-0.48-1.1s-0.5-0.55-0.86-0.73c-0.35-0.18-0.78-0.28-1.27-0.28s-0.92,0.09-1.27,0.28
			c-0.35,0.18-0.64,0.43-0.86,0.73c-0.22,0.31-0.38,0.67-0.48,1.1c-0.1,0.42-0.15,0.88-0.15,1.36v3.78c0,0.51,0.04,0.98,0.13,1.4
			c0.09,0.43,0.24,0.79,0.46,1.1s0.5,0.54,0.86,0.71C4.7,93.6,5.14,93.68,5.66,93.68z"/>
		<path class="st0" d="M25.07,80.64h5.58c1.9,0,3.31,0.44,4.24,1.33s1.38,2.26,1.38,4.12v4.48c0,1.86-0.46,3.23-1.38,4.12
			c-0.92,0.88-2.33,1.33-4.24,1.33h-5.58v-2.79h1.45v-9.81h-1.45V80.64z M30.64,93.24c1.01,0,1.72-0.24,2.12-0.71
			c0.4-0.48,0.6-1.22,0.6-2.23v-4.21c0-0.88-0.2-1.54-0.6-2c-0.4-0.45-1.11-0.68-2.12-0.68h-1.23v9.83H30.64z"/>
		<path class="st0" d="M38.41,80.64h9.7v2.77h-6.8v3.51h6.54v2.77h-6.54v3.56h7.07v2.77h-9.97V80.64z"/>
		<path class="st0" d="M58.52,85.34c0-0.61-0.24-1.15-0.71-1.6c-0.48-0.45-1.15-0.68-2.01-0.68c-0.73,0-1.31,0.15-1.73,0.45
			c-0.42,0.3-0.64,0.71-0.64,1.22c0,0.26,0.05,0.5,0.15,0.71c0.1,0.21,0.28,0.4,0.54,0.57c0.26,0.17,0.59,0.32,1.01,0.45
			s0.95,0.26,1.59,0.37c1.61,0.29,2.84,0.78,3.69,1.47s1.27,1.7,1.27,3.05v0.26c0,0.72-0.13,1.36-0.38,1.94
			c-0.26,0.58-0.63,1.07-1.11,1.48s-1.07,0.73-1.76,0.94c-0.69,0.22-1.46,0.33-2.33,0.33c-1.01,0-1.9-0.14-2.67-0.43
			c-0.77-0.28-1.41-0.68-1.92-1.18c-0.51-0.51-0.9-1.1-1.16-1.78s-0.39-1.42-0.39-2.23v-0.66h2.9v0.53c0,0.92,0.27,1.66,0.8,2.21
			c0.53,0.55,1.36,0.82,2.49,0.82c0.88,0,1.53-0.19,1.95-0.57c0.42-0.38,0.64-0.83,0.64-1.36c0-0.25-0.04-0.49-0.13-0.71
			c-0.09-0.23-0.24-0.43-0.46-0.61c-0.22-0.18-0.52-0.35-0.9-0.49c-0.38-0.15-0.86-0.27-1.45-0.37c-0.78-0.13-1.49-0.3-2.13-0.52
			c-0.64-0.21-1.2-0.49-1.68-0.84s-0.84-0.79-1.11-1.32s-0.39-1.17-0.39-1.93v-0.13c0-0.63,0.13-1.21,0.38-1.75
			c0.26-0.53,0.61-1,1.08-1.39c0.46-0.39,1.02-0.7,1.67-0.92c0.65-0.22,1.38-0.33,2.18-0.33c0.91,0,1.71,0.13,2.41,0.38
			c0.7,0.26,1.29,0.6,1.77,1.04s0.83,0.94,1.08,1.51c0.24,0.57,0.36,1.17,0.36,1.8v0.79h-2.9L58.52,85.34L58.52,85.34z"/>
		<path class="st0" d="M71.05,92.72h-5.22l-0.75,3.29h-3.03l3.67-15.37h5.44l3.67,15.37H71.8L71.05,92.72z M66.44,89.95h3.97
			l-1.78-7.86h-0.39L66.44,89.95z"/>
		<path class="st0" d="M76.21,80.64h9.83v2.77H79.1v3.51h6.8v2.77h-6.8v6.32h-2.9V80.64H76.21z"/>
		<path class="st0" d="M88.41,80.64h10.27v2.77H95v9.83h3.69v2.77H88.41v-2.77h3.69v-9.83h-3.69V80.64z"/>
		<path class="st0" d="M100.44,86.61c0-1.99,0.5-3.53,1.5-4.63s2.39-1.65,4.16-1.65s3.16,0.55,4.16,1.65s1.5,2.64,1.5,4.63v3.42
			c0,2.05-0.5,3.61-1.5,4.67c-1,1.07-2.39,1.6-4.16,1.6s-3.16-0.53-4.16-1.6s-1.5-2.63-1.5-4.67V86.61z M106.1,93.68
			c0.53,0,0.97-0.08,1.32-0.25s0.64-0.41,0.86-0.71c0.22-0.31,0.37-0.67,0.46-1.1c0.09-0.42,0.13-0.89,0.13-1.4v-3.78
			c0-0.48-0.05-0.94-0.15-1.36c-0.1-0.43-0.26-0.79-0.48-1.1s-0.5-0.55-0.86-0.73c-0.35-0.18-0.78-0.28-1.27-0.28
			s-0.92,0.09-1.27,0.28c-0.35,0.18-0.64,0.43-0.86,0.73c-0.22,0.31-0.38,0.67-0.48,1.1c-0.1,0.42-0.15,0.88-0.15,1.36v3.78
			c0,0.51,0.04,0.98,0.13,1.4c0.09,0.43,0.24,0.79,0.46,1.1s0.5,0.54,0.86,0.71C105.14,93.6,105.58,93.68,106.1,93.68z"/>
		<path class="st0" d="M136.74,80.64V90.7c0,1.76-0.46,3.13-1.39,4.13s-2.31,1.49-4.14,1.49s-3.21-0.5-4.14-1.49
			c-0.93-0.99-1.39-2.37-1.39-4.13V80.64h2.9V90.7c0,0.91,0.21,1.62,0.64,2.13c0.42,0.51,1.09,0.77,2,0.77s1.57-0.26,2-0.77
			c0.42-0.51,0.64-1.22,0.64-2.13V80.64H136.74z"/>
		<path class="st0" d="M145.85,94.56h0.39V80.64h2.9v15.37h-5.66l-1.8-13.92h-0.4v13.92h-2.9V80.64h5.66L145.85,94.56z"/>
		<path class="st0" d="M151.19,80.64h10.27v2.77h-3.69v9.83h3.69v2.77h-10.27v-2.77h3.69v-9.83h-3.69V80.64z"/>
		<path class="st0" d="M162.69,80.64h2.98l3.01,13.92h0.39l3.01-13.92h2.99l-3.47,15.37h-5.44L162.69,80.64z"/>
		<path class="st0" d="M176.51,80.64h9.7v2.77h-6.8v3.51h6.54v2.77h-6.54v3.56h7.07v2.77h-9.97V80.64z"/>
		<path class="st0" d="M199.19,96.01h-2.9V91.4c0-0.35-0.09-0.64-0.27-0.86c-0.18-0.22-0.49-0.33-0.91-0.33h-3.34V96h-2.9V80.64
			h5.88c0.79,0,1.49,0.11,2.09,0.33c0.6,0.22,1.1,0.52,1.5,0.91c0.4,0.39,0.71,0.84,0.92,1.35c0.21,0.51,0.32,1.06,0.32,1.65v0.53
			c0,0.63-0.17,1.22-0.5,1.77c-0.34,0.55-0.86,0.97-1.56,1.26v0.39c0.51,0.06,0.92,0.26,1.22,0.59c0.3,0.34,0.45,0.76,0.45,1.27
			L199.19,96.01L199.19,96.01z M191.77,87.45h2.77c0.7,0,1.24-0.16,1.6-0.49c0.37-0.33,0.55-0.79,0.55-1.39V85.3
			c0-0.51-0.18-0.95-0.55-1.33c-0.37-0.37-0.9-0.56-1.6-0.56h-2.77V87.45z"/>
		<path class="st0" d="M209.18,85.34c0-0.61-0.24-1.15-0.71-1.6c-0.48-0.45-1.15-0.68-2.01-0.68c-0.73,0-1.31,0.15-1.73,0.45
			s-0.64,0.71-0.64,1.22c0,0.26,0.05,0.5,0.15,0.71c0.1,0.21,0.28,0.4,0.54,0.57s0.59,0.32,1.01,0.45s0.95,0.26,1.59,0.37
			c1.61,0.29,2.84,0.78,3.69,1.47s1.27,1.7,1.27,3.05v0.26c0,0.72-0.13,1.36-0.38,1.94c-0.26,0.58-0.63,1.07-1.11,1.48
			s-1.07,0.73-1.76,0.94c-0.69,0.22-1.46,0.33-2.33,0.33c-1.01,0-1.9-0.14-2.67-0.43c-0.77-0.28-1.41-0.68-1.92-1.18
			c-0.51-0.51-0.9-1.1-1.16-1.78c-0.26-0.68-0.39-1.42-0.39-2.23v-0.66h2.9v0.53c0,0.92,0.27,1.66,0.8,2.21
			c0.53,0.55,1.36,0.82,2.49,0.82c0.88,0,1.53-0.19,1.95-0.57s0.64-0.83,0.64-1.36c0-0.25-0.04-0.49-0.13-0.71
			c-0.09-0.23-0.24-0.43-0.46-0.61s-0.52-0.35-0.9-0.49c-0.38-0.15-0.86-0.27-1.45-0.37c-0.78-0.13-1.49-0.3-2.13-0.52
			c-0.64-0.21-1.2-0.49-1.68-0.84s-0.84-0.79-1.11-1.32s-0.39-1.17-0.39-1.93v-0.13c0-0.63,0.13-1.21,0.38-1.75
			c0.26-0.53,0.61-1,1.08-1.39c0.46-0.39,1.02-0.7,1.67-0.92s1.38-0.33,2.18-0.33c0.91,0,1.71,0.13,2.41,0.38
			c0.7,0.26,1.29,0.6,1.77,1.04c0.48,0.44,0.83,0.94,1.08,1.51c0.24,0.57,0.36,1.17,0.36,1.8v0.79h-2.9V85.34z"/>
		<path class="st0" d="M213.96,80.64h10.27v2.77h-3.69v9.83h3.69v2.77h-10.27v-2.77h3.69v-9.83h-3.69V80.64z"/>
		<path class="st0" d="M226.12,80.64h11.06v2.77h-4.08v12.6h-2.9v-12.6h-4.08V80.64z"/>
		<path class="st0" d="M246.82,92.72h-5.22l-0.75,3.29h-3.03l3.67-15.37h5.44l3.67,15.37h-3.03L246.82,92.72z M242.21,89.95h3.97
			l-1.78-7.86h-0.39L242.21,89.95z M244.23,76.03h2.94l-1.84,2.98h-2.24L244.23,76.03z"/>
		<path class="st0" d="M261.96,96.01h-2.9V91.4c0-0.35-0.09-0.64-0.27-0.86s-0.49-0.33-0.91-0.33h-3.34V96h-2.9V80.64h5.88
			c0.79,0,1.49,0.11,2.09,0.33s1.1,0.52,1.5,0.91c0.4,0.39,0.71,0.84,0.92,1.35c0.21,0.51,0.32,1.06,0.32,1.65v0.53
			c0,0.63-0.17,1.22-0.5,1.77c-0.34,0.55-0.86,0.97-1.56,1.26v0.39c0.51,0.06,0.92,0.26,1.22,0.59c0.3,0.34,0.45,0.76,0.45,1.27
			L261.96,96.01L261.96,96.01z M254.54,87.45h2.77c0.7,0,1.24-0.16,1.6-0.49c0.37-0.33,0.55-0.79,0.55-1.39V85.3
			c0-0.51-0.18-0.95-0.55-1.33c-0.37-0.37-0.9-0.56-1.6-0.56h-2.77V87.45z"/>
		<path class="st0" d="M264.18,80.64h10.27v2.77h-3.69v9.83h3.69v2.77h-10.27v-2.77h3.69v-9.83h-3.69V80.64z"/>
		<path class="st0" d="M276.21,86.61c0-1.99,0.5-3.53,1.5-4.63s2.39-1.65,4.16-1.65s3.16,0.55,4.16,1.65s1.5,2.64,1.5,4.63v3.42
			c0,2.05-0.5,3.61-1.5,4.67s-2.39,1.6-4.16,1.6s-3.16-0.53-4.16-1.6s-1.5-2.63-1.5-4.67V86.61z M281.87,93.68
			c0.53,0,0.97-0.08,1.32-0.25s0.64-0.41,0.86-0.71c0.22-0.31,0.37-0.67,0.46-1.1c0.09-0.42,0.13-0.89,0.13-1.4v-3.78
			c0-0.48-0.05-0.94-0.15-1.36c-0.1-0.43-0.26-0.79-0.48-1.1s-0.5-0.55-0.86-0.73c-0.35-0.18-0.78-0.28-1.27-0.28
			s-0.92,0.09-1.27,0.28c-0.35,0.18-0.64,0.43-0.86,0.73c-0.22,0.31-0.38,0.67-0.48,1.1c-0.1,0.42-0.15,0.88-0.15,1.36v3.78
			c0,0.51,0.04,0.98,0.13,1.4c0.09,0.43,0.24,0.79,0.46,1.1s0.5,0.54,0.86,0.71C280.91,93.6,281.34,93.68,281.87,93.68z"/>
	</g>
</g>
</svg>
