<?xml version="1.0" encoding="utf-8"?>
<!-- Generator: Adobe Illustrator 23.0.3, SVG Export Plug-In . SVG Version: 6.00 Build 0)  -->
<svg version="1.1" id="Layer_1" xmlns="http://www.w3.org/2000/svg" xmlns:xlink="http://www.w3.org/1999/xlink" x="0px" y="0px"
	 viewBox="0 0 287.36 95.99" style="enable-background:new 0 0 287.36 95.99;" xml:space="preserve">
<style type="text/css">
	.st0{fill:#FFFFFF;}
</style>
<g>
	<path class="st0" d="M0,0.16h43.48v10.87H27.43v49.52H16.05V11.03H0V0.16z"/>
	<path class="st0" d="M53.21,0.16h38.13v10.87H64.6v13.8h25.71v10.87H64.6v13.98h27.78v10.87H53.21V0.16z"/>
	<path class="st0" d="M100.91,0.16h43.48v10.87h-16.05v49.52h-11.39V11.03h-16.05V0.16z"/>
	<path class="st0" d="M194.58,60.55h-11.39V42.44c0-1.38-0.36-2.5-1.08-3.36c-0.72-0.86-1.91-1.29-3.58-1.29h-13.11v22.77h-11.39
		V0.16h23.12c3.11,0,5.84,0.43,8.2,1.29c2.36,0.86,4.33,2.06,5.91,3.58c1.58,1.53,2.79,3.3,3.62,5.31c0.83,2.01,1.25,4.17,1.25,6.47
		v2.07c0,2.47-0.66,4.79-1.98,6.95c-1.32,2.16-3.36,3.81-6.13,4.96v1.55c2.01,0.23,3.61,1.01,4.79,2.33c1.18,1.32,1.77,2.99,1.77,5
		V60.55z M165.42,26.91h10.87c2.76,0,4.86-0.65,6.3-1.94c1.44-1.29,2.16-3.12,2.16-5.48v-1.03c0-2.01-0.72-3.75-2.16-5.22
		c-1.44-1.47-3.54-2.2-6.3-2.2h-10.87V26.91z"/>
	<path class="st0" d="M217.3,0.16v60.39h-11.39V0.16H217.3z"/>
	
		<rect x="251.83" y="24.81" transform="matrix(0.7071 0.7071 -0.7071 0.7071 96.6893 -173.037)" class="st0" width="10.77" height="10.77"/>
	<g>
		
			<rect x="234.85" y="-0.08" transform="matrix(0.7071 -0.7071 0.7071 0.7071 61.0714 173.6977)" class="st0" width="10.72" height="26.42"/>
		
			<rect x="261.02" y="7.77" transform="matrix(0.7071 -0.7071 0.7071 0.7071 71.0357 197.7556)" class="st0" width="26.42" height="10.72"/>
		
			<rect x="268.87" y="34.05" transform="matrix(0.7071 -0.7071 0.7071 0.7071 46.9018 207.7546)" class="st0" width="10.72" height="26.42"/>
		
			<rect x="227" y="41.9" transform="matrix(0.7071 -0.7071 0.7071 0.7071 36.9348 183.6933)" class="st0" width="26.42" height="10.72"/>
	</g>
</g>
<g>
	<path class="st0" d="M88.78,86.74c0-1.9,0.48-3.37,1.43-4.42c0.96-1.05,2.28-1.57,3.97-1.57c1.69,0,3.01,0.52,3.97,1.57
		c0.96,1.05,1.43,2.52,1.43,4.42v3.27c0,1.95-0.48,3.44-1.43,4.46c-0.96,1.02-2.28,1.53-3.97,1.53c-1.69,0-3.01-0.51-3.97-1.53
		c-0.96-1.02-1.43-2.5-1.43-4.46V86.74z M94.18,93.48c0.5,0,0.92-0.08,1.26-0.24c0.34-0.16,0.61-0.39,0.82-0.68
		c0.21-0.29,0.36-0.64,0.44-1.05c0.08-0.4,0.12-0.85,0.12-1.34v-3.6c0-0.46-0.05-0.89-0.15-1.3c-0.1-0.41-0.25-0.75-0.46-1.05
		c-0.21-0.29-0.48-0.53-0.82-0.7c-0.34-0.18-0.74-0.26-1.21-0.26c-0.47,0-0.88,0.09-1.21,0.26c-0.33,0.17-0.61,0.41-0.82,0.7
		c-0.21,0.29-0.36,0.64-0.46,1.05c-0.1,0.4-0.15,0.84-0.15,1.3v3.6c0,0.49,0.04,0.94,0.13,1.34c0.08,0.41,0.23,0.75,0.44,1.05
		c0.21,0.29,0.48,0.52,0.82,0.68C93.26,93.4,93.68,93.48,94.18,93.48z"/>
	<path class="st0" d="M110.86,81.05h5.32c1.81,0,3.16,0.42,4.04,1.27c0.88,0.85,1.32,2.15,1.32,3.93v4.27
		c0,1.77-0.44,3.08-1.32,3.93c-0.88,0.84-2.23,1.27-4.04,1.27h-5.32v-2.66h1.38v-9.36h-1.38V81.05z M116.18,93.06
		c0.96,0,1.64-0.23,2.02-0.68c0.38-0.45,0.58-1.16,0.58-2.12v-4.02c0-0.84-0.19-1.47-0.58-1.9c-0.38-0.43-1.06-0.65-2.02-0.65h-1.17
		v9.38H116.18z"/>
	<path class="st0" d="M124.43,81.05h9.25v2.64h-6.49v3.35h6.24v2.64h-6.24v3.39h6.74v2.64h-9.5V81.05z"/>
	<path class="st0" d="M144.44,85.53c0-0.59-0.23-1.1-0.68-1.53s-1.09-0.65-1.91-0.65c-0.7,0-1.25,0.14-1.65,0.43
		c-0.4,0.29-0.61,0.67-0.61,1.16c0,0.25,0.05,0.48,0.15,0.68c0.1,0.2,0.27,0.39,0.51,0.55c0.24,0.16,0.57,0.3,0.96,0.43
		c0.4,0.12,0.9,0.24,1.52,0.36c1.53,0.28,2.71,0.75,3.52,1.4c0.81,0.66,1.21,1.63,1.21,2.91v0.25c0,0.68-0.12,1.3-0.37,1.85
		c-0.24,0.55-0.6,1.02-1.06,1.41c-0.46,0.39-1.02,0.69-1.67,0.9c-0.66,0.21-1.4,0.31-2.22,0.31c-0.96,0-1.81-0.14-2.54-0.41
		c-0.73-0.27-1.34-0.65-1.83-1.13c-0.49-0.48-0.86-1.05-1.11-1.7c-0.25-0.65-0.38-1.36-0.38-2.13v-0.63h2.76v0.5
		c0,0.88,0.26,1.58,0.76,2.1c0.51,0.52,1.3,0.78,2.38,0.78c0.84,0,1.46-0.18,1.86-0.54c0.41-0.36,0.61-0.8,0.61-1.3
		c0-0.24-0.04-0.46-0.13-0.68c-0.08-0.22-0.23-0.41-0.44-0.59c-0.21-0.18-0.5-0.33-0.86-0.47c-0.36-0.14-0.82-0.26-1.38-0.36
		c-0.74-0.13-1.42-0.29-2.03-0.49c-0.62-0.2-1.15-0.47-1.6-0.81c-0.45-0.33-0.81-0.75-1.06-1.26c-0.25-0.5-0.38-1.12-0.38-1.84
		v-0.13c0-0.6,0.12-1.16,0.37-1.66c0.25-0.51,0.59-0.95,1.03-1.33c0.44-0.38,0.97-0.67,1.59-0.88c0.62-0.21,1.32-0.32,2.08-0.32
		c0.87,0,1.63,0.12,2.3,0.37c0.67,0.25,1.23,0.58,1.68,0.99c0.45,0.42,0.8,0.9,1.03,1.44c0.23,0.54,0.35,1.12,0.35,1.72v0.75h-2.76
		V85.53z"/>
	<path class="st0" d="M157.23,92.56h-4.98l-0.71,3.14h-2.89l3.5-14.65h5.19l3.5,14.65h-2.89L157.23,92.56z M152.84,89.92h3.79
		l-1.7-7.5h-0.38L152.84,89.92z"/>
	<path class="st0" d="M162.99,81.05h9.38v2.64h-6.62v3.35h6.49v2.64h-6.49v6.03h-2.76V81.05z"/>
	<path class="st0" d="M175.47,81.05h9.8v2.64h-3.52v9.38h3.52v2.64h-9.8v-2.64h3.52v-9.38h-3.52V81.05z"/>
	<path class="st0" d="M187.78,86.74c0-1.9,0.48-3.37,1.43-4.42c0.96-1.05,2.28-1.57,3.97-1.57s3.01,0.52,3.97,1.57
		c0.96,1.05,1.43,2.52,1.43,4.42v3.27c0,1.95-0.48,3.44-1.43,4.46c-0.96,1.02-2.28,1.53-3.97,1.53s-3.01-0.51-3.97-1.53
		c-0.96-1.02-1.43-2.5-1.43-4.46V86.74z M193.18,93.48c0.5,0,0.92-0.08,1.26-0.24c0.34-0.16,0.61-0.39,0.82-0.68
		c0.21-0.29,0.36-0.64,0.44-1.05c0.08-0.4,0.12-0.85,0.12-1.34v-3.6c0-0.46-0.05-0.89-0.15-1.3c-0.1-0.41-0.25-0.75-0.46-1.05
		c-0.21-0.29-0.48-0.53-0.82-0.7c-0.34-0.18-0.74-0.26-1.21-0.26c-0.47,0-0.88,0.09-1.21,0.26c-0.33,0.17-0.61,0.41-0.82,0.7
		c-0.21,0.29-0.36,0.64-0.46,1.05c-0.1,0.4-0.15,0.84-0.15,1.3v3.6c0,0.49,0.04,0.94,0.13,1.34c0.08,0.41,0.23,0.75,0.44,1.05
		c0.21,0.29,0.48,0.52,0.82,0.68C192.26,93.4,192.68,93.48,193.18,93.48z"/>
</g>
</svg>
