<svg xmlns="http://www.w3.org/2000/svg" xmlns:xlink="http://www.w3.org/1999/xlink" viewBox="0 0 696.93 795.81"><defs><style>.a,.b,.c,.d,.e,.f{fill:none;}.b,.c,.d{stroke:#00a4e5;}.b,.c,.d,.e,.f{stroke-miterlimit:10;}.b{stroke-width:0.41px;}.c{stroke-width:0.62px;}.d{stroke-width:0.45px;}.e,.f{stroke:#ec008c;stroke-width:5.4px;}.f{stroke-dasharray:10.75 10.75;}.g{clip-path:url(#a);}.h{fill:#ec125f;}.i,.m{font-size:36px;font-family:Fabriga-Bold, Fabriga;font-weight:700;}.i{fill:#fff;}.j{letter-spacing:-0.02em;}.k{letter-spacing:-0.02em;}.l{fill:#d1d3db;}.m,.s{fill:#152032;}.n{letter-spacing:-0.04em;}.o{letter-spacing:-0.01em;}.p{letter-spacing:-0.01em;}.q{letter-spacing:-0.02em;}.r{letter-spacing:-0.02em;}</style><clipPath id="a"><path class="a" d="M351.06,698l-293.93-.18a9,9,0,0,1-9-9l.21-295a9,9,0,0,1,9-9l293.94-.72a9,9,0,0,1,9,9L360.07,689A9,9,0,0,1,351.06,698Z"/></clipPath></defs><title>Asset 1</title><line class="b" x1="0.2" y1="72.31" x2="696.93" y2="72.31"/><line class="b" x1="0.2" y1="48.31" x2="696.93" y2="48.31"/><line class="b" x1="0.2" y1="24.31" x2="696.93" y2="24.31"/><line class="c" x1="1.11" y1="0.31" x2="696.93" y2="0.31"/><line class="b" x1="0.2" y1="96.31" x2="696.93" y2="96.31"/><line class="b" x1="0.2" y1="120.31" x2="696.93" y2="120.31"/><line class="b" x1="0.2" y1="144.31" x2="696.93" y2="144.31"/><line class="b" x1="0.2" y1="168.31" x2="696.93" y2="168.31"/><line class="b" x1="0.2" y1="192.31" x2="696.93" y2="192.31"/><line class="b" x1="0.2" y1="216.31" x2="696.93" y2="216.31"/><line class="b" x1="0.2" y1="240.31" x2="696.93" y2="240.31"/><line class="b" x1="0.2" y1="264.31" x2="696.93" y2="264.31"/><line class="b" x1="0.2" y1="288.31" x2="696.93" y2="288.31"/><line class="b" x1="0.2" y1="312.31" x2="696.93" y2="312.31"/><line class="b" x1="0.2" y1="336.31" x2="696.93" y2="336.31"/><line class="b" x1="0.2" y1="360.31" x2="696.93" y2="360.31"/><line class="b" x1="0.2" y1="384.31" x2="696.93" y2="384.31"/><line class="b" x1="0.2" y1="408.31" x2="696.93" y2="408.31"/><line class="b" x1="0.2" y1="432.31" x2="696.93" y2="432.31"/><line class="b" x1="0.2" y1="456.31" x2="696.93" y2="456.31"/><line class="b" x1="0.2" y1="480.31" x2="696.93" y2="480.31"/><line class="b" x1="0.2" y1="504.31" x2="696.93" y2="504.31"/><line class="b" x1="0.2" y1="528.31" x2="696.93" y2="528.31"/><line class="b" x1="0.2" y1="552.31" x2="696.93" y2="552.31"/><line class="d" x1="576.22" y1="0.31" x2="576.22" y2="795.61"/><line class="d" x1="600.22" y1="0.31" x2="600.22" y2="795.61"/><line class="d" x1="624.22" y1="0.31" x2="624.22" y2="795.61"/><line class="d" x1="648.38" y1="0.31" x2="648.38" y2="795.61"/><line class="d" x1="672.54" y1="0.31" x2="672.54" y2="795.61"/><line class="d" x1="696.7" y1="0.31" x2="696.7" y2="795.61"/><line class="d" x1="552.22" y1="0.31" x2="552.22" y2="795.61"/><line class="d" x1="528.22" y1="0.31" x2="528.22" y2="795.61"/><line class="d" x1="504.22" y1="0.31" x2="504.22" y2="795.61"/><line class="d" x1="480.22" y1="0.31" x2="480.22" y2="795.61"/><line class="d" x1="456.22" y1="0.31" x2="456.22" y2="795.61"/><line class="d" x1="432.22" y1="0.31" x2="432.22" y2="795.61"/><line class="d" x1="408.22" y1="0.31" x2="408.22" y2="795.61"/><line class="d" x1="384.22" y1="0.31" x2="384.22" y2="795.61"/><line class="d" x1="360.22" y1="0.31" x2="360.22" y2="795.61"/><line class="d" x1="336.22" y1="0.31" x2="336.22" y2="795.61"/><line class="d" x1="312.22" y1="0.31" x2="312.22" y2="795.61"/><line class="d" x1="288.22" y1="0.31" x2="288.22" y2="795.61"/><line class="d" x1="264.22" y1="0.31" x2="264.22" y2="795.61"/><line class="d" x1="240.22" y1="0.31" x2="240.22" y2="795.61"/><line class="d" x1="216.22" y1="0.31" x2="216.22" y2="795.61"/><line class="d" x1="192.22" y1="0.31" x2="192.22" y2="795.61"/><line class="d" x1="168.22" y1="0.31" x2="168.22" y2="795.61"/><line class="d" x1="144.22" y1="0.31" x2="144.22" y2="795.61"/><line class="d" x1="120.22" y1="0.31" x2="120.22" y2="795.61"/><line class="d" x1="96.22" y1="0.31" x2="96.22" y2="795.61"/><line class="d" x1="72.22" y1="0.31" x2="72.22" y2="795.61"/><line class="d" x1="48.22" y1="0.31" x2="48.22" y2="795.61"/><line class="d" x1="24.22" y1="0.31" x2="24.22" y2="795.61"/><line class="d" x1="0.23" y1="0.31" x2="0.23" y2="795.61"/><line class="b" x1="0.2" y1="576.91" x2="696.93" y2="576.91"/><line class="b" x1="0.2" y1="601.21" x2="696.93" y2="601.21"/><line class="b" x1="0.2" y1="625.51" x2="696.93" y2="625.51"/><line class="b" x1="0.2" y1="649.81" x2="696.93" y2="649.81"/><line class="b" x1="0.2" y1="674.11" x2="696.93" y2="674.11"/><line class="b" x1="0.2" y1="698.41" x2="696.93" y2="698.41"/><line class="b" x1="0.2" y1="722.71" x2="696.93" y2="722.71"/><line class="b" x1="0.2" y1="747.01" x2="696.93" y2="747.01"/><line class="b" x1="0.2" y1="771.31" x2="696.93" y2="771.31"/><line class="b" x1="0.2" y1="795.61" x2="696.93" y2="795.61"/><line class="e" x1="336.07" y1="0.31" x2="336.07" y2="5.71"/><line class="f" x1="336.07" y1="16.45" x2="336.07" y2="784.83"/><line class="e" x1="336.07" y1="790.21" x2="336.07" y2="795.61"/><g class="g"><image width="2082" height="2518" transform="translate(17.28 292.21) scale(0.19)" xlink:href="../../../../../Google Drive/Design/Media Materials/Social Media/insta/Ju_Lopes_0205.jpg"/></g><rect class="h" x="168.05" y="96.31" width="192.59" height="96.09" rx="10" ry="10"/><text class="i" transform="translate(192.22 144.38)">Hi!</text><path class="h" d="M351.19,336.11,105,335.94a9,9,0,0,1-9-9l.07-101.26a9,9,0,0,1,9-9L351.28,216a9,9,0,0,1,9,9l-.07,102.17A9,9,0,0,1,351.19,336.11Z"/><text class="i" transform="translate(119.5 263.93)">H<tspan class="j" x="26.35" y="0">o</tspan><tspan x="47.23" y="0">w can</tspan><tspan x="0" y="36">I help </tspan><tspan class="k" x="98.78" y="36">y</tspan><tspan x="117.46" y="36">ou?</tspan></text><rect class="l" x="312.66" y="143.92" width="287.13" height="96.63" rx="10" ry="10"/><text class="m" transform="translate(386.58 192.09)"><tspan class="n">W</tspan><tspan x="32.22" y="0">e</tspan><tspan class="o" x="52.81" y="0">l</tspan><tspan x="63.65" y="0">l, he</tspan><tspan class="p" x="135.25" y="0">l</tspan><tspan class="k" x="146.09" y="0">l</tspan><tspan class="j" x="156.74" y="0">o</tspan><tspan x="177.62" y="0">.</tspan></text><rect class="l" x="311.5" y="287.95" width="336.89" height="168.34" rx="10" ry="10"/><text class="m" transform="translate(431.97 336.02)">I <tspan class="q" x="17.35" y="0">w</tspan><tspan x="46.29" y="0">a</tspan><tspan class="r" x="66.06" y="0">n</tspan><tspan x="86.36" y="0">t </tspan><tspan class="p" x="106.81" y="0">t</tspan><tspan x="120.42" y="0">o be </tspan><tspan x="-18.14" y="36">part </tspan><tspan class="j" x="58.89" y="36">o</tspan><tspan x="79.77" y="36">f VTEX </tspan><tspan x="45.47" y="72">N</tspan><tspan class="j" x="71.82" y="72">e</tspan><tspan class="p" x="91.69" y="72">t</tspan><tspan class="j" x="105.3" y="72">w</tspan><tspan x="134.42" y="72">ork</tspan></text><path class="s" d="M320.5,288a9,9,0,0,0-9,9V336h40.14a9,9,0,0,0,9-9V288Z"/><path class="s" d="M351.28,216l-38.62,0v15.36a9.17,9.17,0,0,0,9,9.34h38.6V225.29A9.17,9.17,0,0,0,351.28,216Z"/><path class="s" d="M321.66,143.92a9,9,0,0,0-9,9V192.4h39a9,9,0,0,0,9-9V143.92Z"/><path class="s" d="M351.28,384l-39.78.1v62a10.1,10.1,0,0,0,10,10.19h38.73l0-63.16A9.08,9.08,0,0,0,351.28,384Z"/></svg>