<svg xmlns="http://www.w3.org/2000/svg" viewBox="0 0 90 90"><defs><style>.a{fill:#eb1e64;}.b{fill:none;stroke:#152034;stroke-linecap:round;stroke-linejoin:round;stroke-width:2px;}</style></defs><title>chest</title><path class="a" d="M66.2,14.62H19.91A17.45,17.45,0,0,0,2.51,32V68.36A5.16,5.16,0,0,0,7.65,73.5H78.46a5.16,5.16,0,0,0,5.15-5.15V32A17.45,17.45,0,0,0,66.2,14.62Z"/><path class="b" d="M86.51,38.76v32.5a5.16,5.16,0,0,1-5.15,5.15H10.55a5.16,5.16,0,0,1-5.15-5.15V38.76"/><path class="b" d="M5.41,44.93v-10a17.45,17.45,0,0,1,17.4-17.4H69.1a17.45,17.45,0,0,1,17.4,17.4v10"/><path class="b" d="M86.51,38.76V72.62a3.8,3.8,0,0,1-3.79,3.79H9.19a3.8,3.8,0,0,1-3.79-3.79V38.76"/><path class="b" d="M5.41,44.93v-10a17.45,17.45,0,0,1,17.4-17.4H69.1a17.45,17.45,0,0,1,17.4,17.4v10"/><line class="b" x1="52.25" y1="36.84" x2="86.51" y2="36.84"/><path class="b" d="M52.62,41.85H78.24a2.56,2.56,0,0,1,2.55,2.55V68.67a2.56,2.56,0,0,1-2.55,2.55H13.3a2.56,2.56,0,0,1-2.55-2.55V44.4a2.56,2.56,0,0,1,2.55-2.55H38.83"/><path class="b" d="M50.36,30.71H41.19a1.81,1.81,0,0,0-1.89,1.7V45.58a5.31,5.31,0,0,0,.46,2.15,6.75,6.75,0,0,0,12,0,5.31,5.31,0,0,0,.46-2.15V32.41A1.81,1.81,0,0,0,50.36,30.71Z"/><line class="b" x1="5.41" y1="36.84" x2="39.3" y2="36.84"/><line class="b" x1="5.41" y1="52.69" x2="29.75" y2="52.69"/><line class="b" x1="7.37" y1="27.81" x2="20.25" y2="27.81"/><line class="b" x1="57.48" y1="22.42" x2="81.28" y2="22.42"/><line class="b" x1="64.95" y1="47.54" x2="80.55" y2="47.54"/><line class="b" x1="57.6" y1="65.51" x2="86.51" y2="65.51"/><line class="b" x1="10.76" y1="63.58" x2="18.68" y2="63.58"/><line class="b" x1="32.43" y1="58.74" x2="40.36" y2="58.74"/><line class="b" x1="55.42" y1="55.22" x2="67.05" y2="55.22"/><line class="b" x1="45.96" y1="43.14" x2="45.96" y2="46.73"/></svg>