<?xml version="1.0" encoding="utf-8"?>
<!-- Generator: Adobe Illustrator 22.0.0, SVG Export Plug-In . SVG Version: 6.00 Build 0)  -->
<svg version="1.1" id="Layer_1" xmlns="http://www.w3.org/2000/svg" xmlns:xlink="http://www.w3.org/1999/xlink" x="0px" y="0px"
	 viewBox="0 0 849.9 849.9" style="enable-background:new 0 0 849.9 849.9;" xml:space="preserve">
<style type="text/css">
	.st0{opacity:0.5;enable-background:new    ;}
	.st1{fill:#D6D8E0;}
	.st2{fill:#F71963;}
	.st3{fill:#FFFFFF;}
	.st4{fill:#142032;}
	.st5{enable-background:new    ;}
</style>
<title>color_usage_ratio</title>
<g class="st0">
	<circle class="st1" cx="424.9" cy="424.9" r="424.9"/>
</g>
<g>
	<path class="st2" d="M424.9,766.2c-46,0-90.7-9-132.8-26.8c-40.6-17.2-77.1-41.8-108.4-73.1s-55.9-67.8-73.1-108.4
		C92.8,515.8,83.7,471.1,83.7,425c0-46,9-90.7,26.8-132.8c17.2-40.6,41.8-77.1,73.1-108.4s67.8-55.9,108.4-73.1
		c42.1-17.8,86.8-26.8,132.8-26.8v100c-64.4,0-125,25.1-170.6,70.6C208.8,300,183.7,360.6,183.7,425s25.1,125,70.6,170.5
		c45.6,45.6,106.1,70.6,170.6,70.6V766.2z"/>
</g>
<g>
	<path class="st3" d="M424.9,766.2v-100c64.4,0,125-25.1,170.5-70.6S666,489.5,666,425.1s-25.1-125-70.6-170.6
		c-45.6-45.6-106.1-70.6-170.5-70.6v-100c46,0,90.7,9,132.8,26.8c40.6,17.2,77.1,41.8,108.4,73.1c31.3,31.3,55.9,67.8,73.1,108.4
		C757,334.3,766,379,766,425s-9,90.7-26.8,132.8c-17.2,40.6-41.8,77.1-73.1,108.4c-31.3,31.3-67.8,55.9-108.4,73.1
		C515.7,757.2,471,766.2,424.9,766.2z"/>
</g>
<g>
	<path class="st4" d="M424.9,639.6c-57.3,0-111.2-22.3-151.7-62.8s-62.8-94.4-62.8-151.7s22.3-111.2,62.8-151.7
		s94.4-62.8,151.7-62.8v76c-76.4,0-138.6,62.2-138.6,138.6s62.2,138.6,138.6,138.6L424.9,639.6L424.9,639.6z"/>
</g>
<g>
	<path class="st1" d="M563.5,425c0-76.4-62.2-138.6-138.6-138.6v-76c57.3,0,111.2,22.3,151.7,62.8s62.8,94.4,62.9,151.7L563.5,425z"
		/>
</g>
<g class="st5">
	<path class="st3" d="M131.5,406.8v-25.5h-7V375c4.5-0.3,7.8-0.7,8.8-5.7h7.5v37.5H131.5z"/>
</g>
<g class="st5">
	<path class="st4" d="M822.5,381.1c0,7.2-7,13.2-13,18l0,0c1.2-0.2,4.5-0.2,5.5-0.2h8.2v7.5h-27.8v-5c5.5-4.5,10-8.5,14.3-13
		c2.5-2.5,3.5-4.8,3.5-8c0-3-1.5-4.8-4.8-4.8c-3,0-4.8,2-4.8,5c0,0.7,0,2,0.2,3v1h-8.2c-0.2-1-0.8-2.8-0.8-4.8
		c0-7.8,6.8-11.5,13.5-11.5c7.5,0,13.5,3.8,13.5,11.8v1H822.5z"/>
</g>
<g class="st5">
	<path class="st3" d="M248.2,385.1l3.2-3.5c1.2-1.2,3-3.8,4.5-5l0,0c-1.2,0-5.5,0.3-6.8,0.3h-7.8v-7.2h25v5.3l-7.5,8.5
		c5.5,1,9,5,9,10.7v0.5c0,9.3-6.2,13.2-14.5,13.2s-13.5-3.8-14-11.5v-0.7h8.5c0.3,3.5,2.2,5.2,5.5,5.2c3.5,0,5.5-2.2,5.5-5.7
		c0-4.7-2.8-6-7-6c-1,0-2,0-2.8,0.2l-0.8-0.2L248.2,385.1z"/>
</g>
<g class="st5">
	<path class="st4" d="M580.5,392.6l18.2-23.2h9.3v21h5.5v7.2H608v9h-9v-9h-17.5L580.5,392.6z M599.5,390.4v-8.2c0-1.2,0-2.8,0.2-4
		l0,0c-0.5,1-1.2,2.2-2,3.2l-4.5,6c-0.5,1-1.5,2-2,2.8l0,0c0.8,0,1.8-0.3,2.8-0.3h5.5V390.4z"/>
</g>
</svg>
