<svg xmlns="http://www.w3.org/2000/svg" viewBox="0 0 90 90"><defs><style>.a{fill:#f11e64;}.a,.c{stroke:#152034;stroke-linecap:round;stroke-linejoin:round;stroke-width:2px;}.b{fill:#eb1e64;}.c{fill:none;}.d{fill:#fff;}</style></defs><title>digital</title><line class="a" x1="29.43" y1="71.75" x2="29.43" y2="63.67"/><line class="a" x1="57.67" y1="72.01" x2="57.67" y2="63.53"/><rect class="b" x="3" y="11.19" width="75.67" height="49.63" rx="4.17" ry="4.17"/><line class="a" x1="21.89" y1="72.01" x2="65.21" y2="72.01"/><line class="a" x1="81.38" y1="57.36" x2="5.72" y2="57.36"/><rect class="c" x="5.72" y="13.9" width="75.67" height="49.63" rx="4.17" ry="4.17"/><rect class="b" x="58.3" y="32.01" width="27.37" height="46.33" rx="6.66" ry="6.66"/><path class="d" d="M79,33a5.68,5.68,0,0,1,5.66,5.66v33A5.68,5.68,0,0,1,79,77.35H65a5.68,5.68,0,0,1-5.66-5.66v-33A5.68,5.68,0,0,1,65,33H79m0-2H65a7.67,7.67,0,0,0-7.66,7.66v33A7.67,7.67,0,0,0,65,79.35H79a7.67,7.67,0,0,0,7.66-7.66v-33A7.67,7.67,0,0,0,79,31Z"/><rect class="c" x="61.63" y="35.5" width="25.37" height="44.33" rx="5.66" ry="5.66"/><line class="a" x1="61.68" y1="42.15" x2="87" y2="42.15"/><line class="a" x1="61.68" y1="70.45" x2="87" y2="70.45"/></svg>