<svg xmlns="http://www.w3.org/2000/svg" viewBox="0 0 90 90"><defs><style>.a{fill:#f11e64;}.b{fill:#152034;}</style></defs><title>folder</title><path class="a" d="M42.15,19V16.93a3.43,3.43,0,0,0-3.43-3.43H6.43A3.43,3.43,0,0,0,3,16.93V74.09a3.43,3.43,0,0,0,3.43,3.43H77.87a3.43,3.43,0,0,0,3.43-3.43V25.88a3.43,3.43,0,0,0-3.43-3.43H45.58A3.43,3.43,0,0,1,42.15,19Z"/><path class="a" d="M6.43,76.51a2.61,2.61,0,0,1-2-.8A1.77,1.77,0,0,1,4,74.3L9,32.37a3.19,3.19,0,0,1,3.21-2.45H83.57a2.61,2.61,0,0,1,2,.8A1.77,1.77,0,0,1,86,32.13L81,74.06a3.19,3.19,0,0,1-3.21,2.45Z"/><path class="b" d="M83.57,30.91a1.62,1.62,0,0,1,1.22.46A.77.77,0,0,1,85,32L80,73.94a2.22,2.22,0,0,1-2.22,1.57H6.43a1.62,1.62,0,0,1-1.22-.46.77.77,0,0,1-.2-.63l5-41.94a2.22,2.22,0,0,1,2.22-1.57H83.57m0-2H12.26a4.17,4.17,0,0,0-4.21,3.33L3,74.18C2.8,76,4.33,77.51,6.43,77.51H77.74a4.17,4.17,0,0,0,4.21-3.33l5-41.94c.22-1.83-1.31-3.33-3.41-3.33Z"/></svg>