<?xml version="1.0" encoding="UTF-8"?>
<svg width="240px" height="225px" viewBox="0 0 240 225" version="1.1" xmlns="http://www.w3.org/2000/svg" xmlns:xlink="http://www.w3.org/1999/xlink">
    <!-- Generator: Sketch 43.2 (39069) - http://www.bohemiancoding.com/sketch -->
    <title>Page 1</title>
    <desc>Created with Sketch.</desc>
    <defs>
        <polygon id="path-1" points="231.93 0.4062 231.93 1.4062 0.7065 1.4062 0.7065 0.4062 231.93 0.4062"></polygon>
    </defs>
    <g id="Page-1" stroke="none" stroke-width="1" fill="none" fill-rule="evenodd">
        <g id="Desktop-HD-Copy-8" transform="translate(-922.000000, -1654.000000)">
            <g id="Page-1" transform="translate(922.000000, 1654.000000)">
                <path d="M215.663,38.3846 L141.415,186.0016 C135.676,197.4116 120.189,197.3936 114.474,185.9696 L40.939,38.9856 C35.575,28.2626 42.935,15.3626 54.418,15.3626 L202.56,15.3626 C213.75,15.3626 220.913,27.9466 215.663,38.3846" id="Fill-1" fill="#D0D2DB"></path>
                <path d="M133.7465,83.4159 L85.5545,179.2299 C81.8285,186.6369 71.7765,186.6249 68.0675,179.2099 L20.3375,83.8059 C16.8555,76.8459 21.6335,68.4729 29.0855,68.4729 L125.2425,68.4729 C132.5055,68.4729 137.1545,76.6409 133.7465,83.4159" id="Fill-3" fill="#D0D2DB"></path>
                <path d="M136.2807,78.3666 L104.1397,142.2676 C101.6557,147.2066 94.9517,147.1996 92.4777,142.2536 L60.6457,78.6266 C58.3227,73.9846 61.5097,68.4006 66.4797,68.4006 L130.6087,68.4006 C135.4527,68.4006 138.5527,73.8486 136.2807,78.3666" id="Fill-5" fill="#FFFFFF"></path>
                <path d="M73.1347,75.1776 C73.1347,78.8406 70.1657,81.8096 66.5037,81.8096 C62.8407,81.8096 59.8717,78.8406 59.8717,75.1776 C59.8717,71.5156 62.8407,68.5466 66.5037,68.5466 C70.1657,68.5466 73.1347,71.5156 73.1347,75.1776 Z" id="Stroke-7" stroke="#F01E64"></path>
                <path d="M105.0874,139.3363 C105.0874,142.9983 102.1184,145.9673 98.4564,145.9673 C94.7934,145.9673 91.8244,142.9983 91.8244,139.3363 C91.8244,135.6733 94.7934,132.7043 98.4564,132.7043 C102.1184,132.7043 105.0874,135.6733 105.0874,139.3363 Z" id="Stroke-9" stroke="#F01E64"></path>
                <path d="M137.04,75.1776 C137.04,78.8406 134.071,81.8096 130.409,81.8096 C126.746,81.8096 123.777,78.8406 123.777,75.1776 C123.777,71.5156 126.746,68.5466 130.409,68.5466 C134.071,68.5466 137.04,71.5156 137.04,75.1776 Z" id="Stroke-11" stroke="#F01E64"></path>
                <path d="M175.5903,0.2245 L69.4353,211.2765" id="Stroke-13" stroke="#F01E64"></path>
                <path d="M0,68.4725 L234.857,68.4725" id="Stroke-15" stroke="#F01E64"></path>
                <path d="M84.1098,211.2767 L3.6338,50.4177" id="Stroke-17" stroke="#F01E64"></path>
                <path d="M133.8657,224.7313 L21.5477,0.2243" id="Stroke-19" stroke="#F01E64"></path>
                <path d="M234.8569,0.2245 L121.9349,224.7315" id="Stroke-21" stroke="#F01E64"></path>
                <path d="M38.1655,78.0404 C38.1655,83.2834 33.9155,87.5344 28.6715,87.5344 C23.4285,87.5344 19.1775,83.2834 19.1775,78.0404 C19.1775,72.7964 23.4285,68.5464 28.6715,68.5464 C33.9155,68.5464 38.1655,72.7964 38.1655,78.0404 Z" id="Stroke-23" stroke="#F01E64"></path>
                <path d="M142.8227,179.684 C142.8227,187.893 136.1677,194.549 127.9587,194.549 C119.7487,194.549 113.0937,187.893 113.0937,179.684 C113.0937,171.475 119.7487,164.82 127.9587,164.82 C136.1677,164.82 142.8227,171.475 142.8227,179.684 Z" id="Stroke-25" stroke="#F01E64"></path>
                <path d="M68.8813,30.2269 C68.8813,38.4359 62.2263,45.0909 54.0173,45.0909 C45.8073,45.0909 39.1523,38.4359 39.1523,30.2269 C39.1523,22.0179 45.8073,15.3619 54.0173,15.3619 C62.2263,15.3619 68.8813,22.0179 68.8813,30.2269 Z" id="Stroke-27" stroke="#F01E64"></path>
                <path d="M217.4179,30.2269 C217.4179,38.4359 210.7629,45.0909 202.5529,45.0909 C194.3439,45.0909 187.6889,38.4359 187.6889,30.2269 C187.6889,22.0179 194.3439,15.3619 202.5529,15.3619 C210.7629,15.3619 217.4179,22.0179 217.4179,30.2269 Z" id="Stroke-29" stroke="#F01E64"></path>
                <path d="M86.5254,175.2846 C86.5254,180.5276 82.2754,184.7786 77.0314,184.7786 C71.7884,184.7786 67.5384,180.5276 67.5384,175.2846 C67.5384,170.0416 71.7884,165.7906 77.0314,165.7906 C82.2754,165.7906 86.5254,170.0416 86.5254,175.2846 Z" id="Stroke-31" stroke="#F01E64"></path>
                <g id="Group-35" transform="translate(8.000000, 14.956000)">
                    <mask id="mask-2" fill="white">
                        <use xlink:href="#path-1"></use>
                    </mask>
                    <g id="Clip-34"></g>
                    <path d="M0.7065,0.4062 L231.9305,0.4062" id="Stroke-33" stroke="#F01E64" mask="url(#mask-2)"></path>
                </g>
            </g>
        </g>
    </g>
</svg>