<?xml version="1.0" encoding="UTF-8"?>
<svg width="402px" height="193px" viewBox="0 0 402 193" version="1.1" xmlns="http://www.w3.org/2000/svg" xmlns:xlink="http://www.w3.org/1999/xlink">
    <!-- Generator: Sketch 48.2 (47327) - http://www.bohemiancoding.com/sketch -->
    <title>Page 1</title>
    <desc>Created with Sketch.</desc>
    <defs></defs>
    <g id="Desktop-HD-Copy-20" stroke="none" stroke-width="1" fill="none" fill-rule="evenodd" transform="translate(-839.000000, -2219.000000)">
        <g id="Page-1" transform="translate(839.000000, 2220.000000)">
            <path d="M96.462464,186.218259 L116.037983,149.146742 C117.551114,146.280931 121.634707,146.28542 123.141145,149.154223 L142.529289,186.067151 C143.942783,188.76016 142.002854,192 138.975106,192 L99.9170111,192 C96.9665929,192 95.0787118,188.839454 96.462464,186.218259" id="Fill-13" fill="#D6D8E0"></path>
            <path d="M142.537232,5.78174126 L122.961697,42.8532578 C121.448565,45.7190685 117.364969,45.7145802 115.858529,42.8457773 L96.4711132,5.932849 C95.0568743,3.23983975 96.9968056,0 100.024556,0 L139.082682,0 C142.033103,0 143.921729,3.16054559 142.537232,5.78174126" id="Fill-15" fill="#D6D8E0"></path>
            <path d="M31.9102366,73.4726112 L69.8056432,93.4645181 C72.7351446,95.0098339 72.7305565,99.1802883 69.7972317,100.71877 L32.0647027,120.518556 C29.311843,121.963636 26,119.981683 26,116.889532 L26,77.0006394 C26,73.9874633 29.2307866,72.0586662 31.9102366,73.4726112" id="Fill-17" fill="#D6D8E0"></path>
            <path d="M395.218259,120.537231 L358.146742,100.961658 C355.280931,99.448524 355.28542,95.3656635 358.154223,93.8584775 L395.067151,74.4710243 C397.76016,73.0567827 401,74.9974612 401,78.0244736 L401,117.082674 C401,120.033101 397.839454,121.92173 395.218259,120.537231" id="Fill-19" fill="#D6D8E0"></path>
            <path d="M142.766521,79.897098 L123.402151,116.134952 C121.905342,118.936316 117.865796,118.931929 116.375607,116.12764 L97.1973265,80.0448076 C95.7983433,77.4123587 97.7173482,74.2453763 100.712437,74.2453763 L139.349236,74.2453763 C142.26783,74.2453763 144.136083,77.3348477 142.766521,79.897098 M183.014872,44 L93.4233081,44 C86.4791437,44 82.0276996,51.3438014 85.2721345,57.4481581 L94.2390139,74.3192311 L77.9837407,74.3192311 C73.483016,74.3192311 70.5975211,79.0795763 72.7004092,83.0362934 L101.526672,137.26913 C103.767105,141.484704 109.837456,141.491285 112.087451,137.28083 L119.917197,122.629057 L129.743179,141.116161 C133.199447,147.619773 142.564985,147.63001 146.035964,141.134442 L190.938766,57.1059397 C194.11406,51.1639174 189.781773,44 183.014872,44" id="Fill-1" fill="#F71963"></path>
            <path d="M142.766521,79.897098 L123.402151,116.134952 C121.905342,118.936316 117.865796,118.931929 116.375607,116.12764 L97.1973265,80.0448076 C95.7983433,77.4123587 97.7173482,74.2453763 100.712437,74.2453763 L139.349236,74.2453763 C142.26783,74.2453763 144.136083,77.3348477 142.766521,79.897098 M183.014872,44 L93.4233081,44 C86.4791437,44 82.0276996,51.3438014 85.2721345,57.4481581 L94.2390139,74.3192311 L77.9837407,74.3192311 C73.483016,74.3192311 70.5975211,79.0795763 72.7004092,83.0362934 L101.526672,137.26913 C103.767105,141.484704 109.837456,141.491285 112.087451,137.28083 L119.917197,122.629057 L129.743179,141.116161 C133.199447,147.619773 142.564985,147.63001 146.035964,141.134442 L190.938766,57.1059397 C194.11406,51.1639174 189.781773,44 183.014872,44" id="Fill-11" fill="#F71963"></path>
            <path d="M18,74 L354,74" id="Stroke-25" stroke="#D6D8E0" stroke-dasharray="5"></path>
            <path d="M18,118 L354,118" id="Stroke-28" stroke="#D6D8E0" stroke-dasharray="5"></path>
            <path d="M275.784447,82.5400254 L265.950167,82.5400254 L265.950167,117.788473 C265.950167,118.4547 265.428908,119 264.792053,119 L257.207947,119 C256.571092,119 256.049833,118.4547 256.049833,117.788473 L256.049833,82.5400254 L246.157396,82.5400254 C245.521259,82.5400254 245,82.0555648 245,81.3893377 L245,75.1514388 C245,74.4852116 245.521259,74 246.157396,74 L275.784447,74 C276.421302,74 277,74.4852116 277,75.1514388 L277,81.3893377 C277,82.0555648 276.421302,82.5400254 275.784447,82.5400254" id="Fill-3" fill="#F71963"></path>
            <path d="M310.79586,118.231033 C308.687866,118.526563 305.142093,119 298.636891,119 C290.866144,119 284,117.048177 284,106.286316 L284,86.6541364 C284,75.892276 290.926801,74 298.696799,74 C305.202,74 308.687866,74.4734366 310.79586,74.7689669 C311.639058,74.887326 312,75.1828563 312,75.9518232 L312,81.450745 C312,82.1013527 311.458586,82.6336013 310.79586,82.6336013 L298.094729,82.6336013 C295.263352,82.6336013 294.239683,83.5797393 294.239683,86.6541364 L294.239683,92.0354342 L310.313605,92.0354342 C310.976331,92.0354342 311.518494,92.5676828 311.518494,93.2182905 L311.518494,98.8355715 C311.518494,99.4861792 310.976331,100.018428 310.313605,100.018428 L294.239683,100.018428 L294.239683,106.286316 C294.239683,109.361449 295.263352,110.307587 298.094729,110.307587 L310.79586,110.307587 C311.458586,110.307587 312,110.839835 312,111.489708 L312,116.989365 C312,117.757597 311.639058,118.112674 310.79586,118.231033" id="Fill-5" fill="#F71963"></path>
            <path d="M355.200853,119 L345.427494,119 C344.628347,119 344.259627,118.757548 343.8292,118.091743 L335.35474,104.835696 L327.679427,117.78849 C327.249,118.515096 326.818573,119 326.142079,119 L317.045214,119 C316.430427,119 316.123414,118.636697 316.123414,118.212594 C316.123414,118.091743 316.185122,117.910092 316.246067,117.78849 L329.576353,95.9250209 L316.123414,75.1507089 C316.062469,75.0298582 316,74.9090075 316,74.7874062 C316,74.3640534 316.430427,74 316.922561,74 L326.818573,74 C327.495067,74 327.98644,74.6057548 328.355159,75.1507089 L336.219403,87.3851543 L343.8292,75.1507089 C344.136975,74.6057548 344.690054,74 345.365787,74 L354.463414,74 C354.954786,74 355.385213,74.3640534 355.385213,74.7874062 C355.385213,74.9090075 355.323506,75.0298582 355.26256,75.1507089 L341.874376,96.0541284 L355.81564,117.78849 C355.938293,118.030942 356,118.212594 356,118.394245 C356,118.757548 355.692987,119 355.200853,119" id="Fill-7" fill="#F71963"></path>
            <path d="M232.284545,74 C231.833308,74 231.443255,74.3080561 231.352243,74.7381441 L222.390974,106.997718 C222.267075,107.657732 222.081991,107.898075 221.527505,107.898075 C220.971489,107.898075 220.786405,107.657732 220.663271,106.997718 L211.702002,74.7381441 C211.610225,74.3080561 211.220937,74 210.7697,74 L201.95298,74 C201.339603,74 200.886071,74.5558403 201.025266,75.13698 C201.025266,75.13698 211.965861,112.122313 212.085936,112.48692 C213.545957,116.89495 217.090082,119 221.597867,119 C225.893035,119 229.639835,116.793753 231.10521,112.49957 C231.278821,111.99284 241.975442,75.1332595 241.975442,75.1332595 C242.112343,74.5528639 241.659576,74 241.047728,74 L232.284545,74 Z" id="Fill-9" fill="#F71963"></path>
            <polygon id="Stroke-21" stroke="#D6D8E0" points="72 146 356 146 356 44 72 44"></polygon>
            <polygon id="Stroke-23" stroke="#142032" points="26 191 401 191 401 0 26 0"></polygon>
            <path d="M18,73.5316226 L18,118.4683" id="Stroke-31" stroke="#D6D8E0" stroke-dasharray="5"></path>
            <text id="X" font-family="FabrigaMedium, Fabriga" font-size="19.3035" font-weight="400" fill="#000000">
                <tspan x="0" y="104">X</tspan>
            </text>
        </g>
    </g>
</svg>