<svg xmlns="http://www.w3.org/2000/svg" viewBox="0 0 90 90"><defs><style>.a{fill:#eb1e64;}.b{fill:#fff;}.c{fill:none;stroke:#152034;stroke-linecap:round;stroke-linejoin:round;stroke-width:2px;}</style></defs><title>print</title><path class="a" d="M73.31,8.88H2.17v63A7.11,7.11,0,0,0,9.26,79H75.89A7.11,7.11,0,0,0,83,71.87V18.53H73.31Z"/><rect class="b" x="13.18" y="28.51" width="20.84" height="20.84"/><path class="c" d="M76.92,21.71h9.25V75.06a7.11,7.11,0,0,1-7.09,7.09H12.44a7.11,7.11,0,0,1-7.09-7.09v-63H76.5v60a3.55,3.55,0,0,0,3.64,2.66"/><line class="c" x1="16.36" y1="23.39" x2="65.59" y2="23.39"/><line class="c" x1="44.75" y1="32.82" x2="65.59" y2="32.82"/><line class="c" x1="44.75" y1="42.24" x2="65.59" y2="42.24"/><line class="c" x1="44.75" y1="51.67" x2="65.59" y2="51.67"/><line class="c" x1="44.75" y1="61.09" x2="65.59" y2="61.09"/><line class="c" x1="44.75" y1="70.52" x2="65.59" y2="70.52"/><line class="c" x1="16.36" y1="61.09" x2="37.2" y2="61.09"/><line class="c" x1="16.36" y1="70.52" x2="37.2" y2="70.52"/><rect class="c" x="16.36" y="31.7" width="20.84" height="20.84"/></svg>