<svg xmlns="http://www.w3.org/2000/svg" viewBox="0 0 345.2 861.46"><defs><style>.a,.d,.x{fill:#fff;}.b{fill:#d6d8e0;}.c{fill:#f71963;}.d,.w{font-size:14.84px;}.d,.m,.w,.x{font-family:Fabriga-Bold, Fabriga;font-weight:700;}.e{letter-spacing:-0.04em;}.f{letter-spacing:0em;}.g{letter-spacing:-0.01em;}.h{letter-spacing:-0.08em;}.i{letter-spacing:-0.02em;}.j{letter-spacing:-0.01em;}.k{letter-spacing:-0.02em;}.l{letter-spacing:-0.03em;}.m,.x{font-size:8.19px;}.m,.v,.w{fill:#142032;}.n{letter-spacing:-0.02em;}.o{letter-spacing:-0.01em;}.p{letter-spacing:0em;}.q{letter-spacing:-0.07em;}.r{letter-spacing:-0.03em;}.s{letter-spacing:-0.01em;}.t{letter-spacing:-0.04em;}.u{letter-spacing:-0.02em;}</style></defs><title>rectangle_color_usage</title><rect class="a" x="0.55" y="0.55" width="344.1" height="214.26"/><path class="b" d="M344.1,1.1V214.26H1.1V1.1h343M345.2,0H0V215.36H345.2V0Z"/><rect class="c" x="42" y="47.51" width="144.29" height="118.89" rx="7.5" ry="7.5"/><text class="d" transform="translate(52.21 69.93)"><tspan class="e">W</tspan><tspan class="f" x="13.28" y="0">e a</tspan><tspan class="g" x="32.58" y="0">r</tspan><tspan x="38.42" y="0">e The </tspan><tspan class="h" x="78.02" y="0">T</tspan><tspan x="85.58" y="0">rue</tspan><tspan x="0" y="17.8">C</tspan><tspan class="i" x="10.44" y="17.8">l</tspan><tspan x="14.83" y="17.8">oud Comme</tspan><tspan class="j" x="97.17" y="17.8">r</tspan><tspan x="103.01" y="17.8">ce</tspan><tspan x="0" y="35.6">Pl</tspan><tspan class="k" x="14.02" y="35.6">a</tspan><tspan x="21.91" y="35.6">t</tspan><tspan class="l" x="27.67" y="35.6">f</tspan><tspan x="33.36" y="35.6">orm</tspan></text><rect class="b" x="163.39" y="119.4" width="139.8" height="68.19" rx="7.5" ry="7.5" transform="translate(466.58 306.99) rotate(180)"/><text class="m" transform="translate(230.5 136.26)"><tspan class="n">L</tspan><tspan x="4.27" y="0">o</tspan><tspan class="o" x="9.19" y="0">r</tspan><tspan class="p" x="12.42" y="0">em ipsum it</tspan><tspan class="q" x="55.35" y="0">’</tspan><tspan x="57.61" y="0">s</tspan><tspan x="1.15" y="9.83">a simp</tspan><tspan class="r" x="25.4" y="9.83">l</tspan><tspan x="27.71" y="9.83">y dum</tspan><tspan class="s" x="50.24" y="9.83">m</tspan><tspan x="57.19" y="9.83">y</tspan><tspan class="s" x="22.64" y="19.67">t</tspan><tspan class="t" x="25.74" y="19.67">e</tspan><tspan class="u" x="30.1" y="19.67">x</tspan><tspan x="34.66" y="19.67">t about</tspan></text><path class="c" d="M249.94,25H222.05a2.87,2.87,0,0,0-2.54,4.21l2.79,5.29h-5.06a1.86,1.86,0,0,0-1.64,2.73l9,17a1.86,1.86,0,0,0,3.29,0l2.44-4.58,3,5.79a2.88,2.88,0,0,0,5.08,0l14-26.31A2.8,2.8,0,0,0,249.94,25M237.41,36.27l-6,11.35a1.24,1.24,0,0,1-2.19,0l-6-11.3a1.24,1.24,0,0,1,1.1-1.82h12a1.21,1.21,0,0,1,1.06,1.77"/><path class="c" d="M279.61,37.24h-3.05V47.69a.36.36,0,0,1-.36.36h-2.35a.36.36,0,0,1-.36-.36V37.24h-3.07a.35.35,0,0,1-.36-.34V35.05a.34.34,0,0,1,.36-.34h9.19a.36.36,0,0,1,.38.34V36.9a.37.37,0,0,1-.38.34"/><path class="c" d="M289.41,48a23.74,23.74,0,0,1-3.63.23c-2.32,0-4.37-.59-4.37-3.86v-6c0-3.27,2.07-3.85,4.39-3.85a22.93,22.93,0,0,1,3.61.24c.25,0,.35.12.35.36v1.67a.36.36,0,0,1-.35.36h-3.79c-.85,0-1.15.28-1.15,1.22V40h4.79a.36.36,0,0,1,.36.36v1.71a.36.36,0,0,1-.36.36h-4.79v1.9c0,.94.3,1.22,1.15,1.22h3.79a.36.36,0,0,1,.35.36V47.6c0,.24-.1.34-.35.38"/><path class="c" d="M303,48.05H300.1a.46.46,0,0,1-.46-.27l-2.48-3.93-2.24,3.84c-.13.22-.26.36-.45.36h-2.66a.24.24,0,0,1-.27-.23.61.61,0,0,1,0-.13l3.9-6.48-3.93-6.16a.3.3,0,0,1,0-.11.26.26,0,0,1,.27-.23h2.89a.58.58,0,0,1,.45.34l2.3,3.63,2.23-3.63a.55.55,0,0,1,.44-.34h2.66a.25.25,0,0,1,.27.23.61.61,0,0,1,0,.11l-3.92,6.2,4.08,6.44a.49.49,0,0,1,.05.18c0,.11-.09.18-.23.18"/><path class="c" d="M265.75,34.74a.28.28,0,0,0-.27.22l-2.61,9.66c0,.19-.09.26-.25.26s-.21-.07-.25-.26L259.76,35a.28.28,0,0,0-.27-.22h-2.57a.28.28,0,0,0-.27.34l3.22,11.18a2.71,2.71,0,0,0,2.77,2,2.79,2.79,0,0,0,2.77-2c0-.15,3.16-11.18,3.16-11.18a.28.28,0,0,0-.27-.34Z"/><path class="v" d="M170.38,119.4a7,7,0,0,0-7,7v40h15.92a7,7,0,0,0,7-7v-40Z"/><rect class="b" y="215.36" width="345.2" height="215.36"/><rect class="c" x="42" y="262.88" width="144.29" height="118.89" rx="7.5" ry="7.5"/><text class="d" transform="translate(52.21 285.29)"><tspan class="e">W</tspan><tspan class="f" x="13.28" y="0">e a</tspan><tspan class="g" x="32.58" y="0">r</tspan><tspan x="38.42" y="0">e The </tspan><tspan class="h" x="78.02" y="0">T</tspan><tspan x="85.58" y="0">rue</tspan><tspan x="0" y="17.8">C</tspan><tspan class="i" x="10.44" y="17.8">l</tspan><tspan x="14.83" y="17.8">oud Comme</tspan><tspan class="j" x="97.17" y="17.8">r</tspan><tspan x="103.01" y="17.8">ce</tspan><tspan x="0" y="35.6">Pl</tspan><tspan class="k" x="14.02" y="35.6">a</tspan><tspan x="21.91" y="35.6">t</tspan><tspan class="l" x="27.67" y="35.6">f</tspan><tspan x="33.36" y="35.6">orm</tspan></text><rect class="a" x="163.39" y="334.76" width="139.8" height="68.19" rx="7.5" ry="7.5" transform="translate(466.58 737.72) rotate(180)"/><text class="m" transform="translate(230.5 351.62)"><tspan class="n">L</tspan><tspan x="4.27" y="0">o</tspan><tspan class="o" x="9.19" y="0">r</tspan><tspan class="p" x="12.42" y="0">em ipsum it</tspan><tspan class="q" x="55.35" y="0">’</tspan><tspan x="57.61" y="0">s</tspan><tspan x="1.15" y="9.83">a simp</tspan><tspan class="r" x="25.4" y="9.83">l</tspan><tspan x="27.71" y="9.83">y dum</tspan><tspan class="s" x="50.24" y="9.83">m</tspan><tspan x="57.19" y="9.83">y</tspan><tspan class="s" x="22.64" y="19.67">t</tspan><tspan class="t" x="25.74" y="19.67">e</tspan><tspan class="u" x="30.1" y="19.67">x</tspan><tspan x="34.66" y="19.67">t about</tspan></text><path class="c" d="M249.94,240.4H222.05a2.87,2.87,0,0,0-2.54,4.21l2.79,5.28h-5.06a1.86,1.86,0,0,0-1.64,2.73l9,17a1.86,1.86,0,0,0,3.29,0L230.3,265l3,5.79a2.88,2.88,0,0,0,5.08,0l14-26.32a2.79,2.79,0,0,0-2.47-4.1m-12.53,11.24-6,11.35a1.24,1.24,0,0,1-2.19,0l-6-11.3a1.24,1.24,0,0,1,1.1-1.81h12a1.21,1.21,0,0,1,1.06,1.77"/><path class="c" d="M279.61,252.6h-3.05v10.46a.36.36,0,0,1-.36.36h-2.35a.36.36,0,0,1-.36-.36V252.6h-3.07a.34.34,0,0,1-.36-.34v-1.85a.34.34,0,0,1,.36-.34h9.19a.36.36,0,0,1,.38.34v1.85a.36.36,0,0,1-.38.34"/><path class="c" d="M289.41,263.34a23.27,23.27,0,0,1-3.63.24c-2.32,0-4.37-.59-4.37-3.86v-6c0-3.27,2.07-3.84,4.39-3.84a23.4,23.4,0,0,1,3.61.23c.25,0,.35.13.35.36v1.67a.36.36,0,0,1-.35.36h-3.79c-.85,0-1.15.29-1.15,1.22v1.64h4.79a.36.36,0,0,1,.36.36v1.7a.36.36,0,0,1-.36.36h-4.79v1.91c0,.93.3,1.22,1.15,1.22h3.79a.36.36,0,0,1,.35.36V263c0,.23-.1.34-.35.37"/><path class="c" d="M303,263.42H300.1a.47.47,0,0,1-.46-.27l-2.48-3.93-2.24,3.84c-.13.21-.26.36-.45.36h-2.66a.24.24,0,0,1-.27-.24.53.53,0,0,1,0-.12l3.9-6.49-3.93-6.16a.21.21,0,0,1,0-.11.26.26,0,0,1,.27-.23h2.89c.2,0,.35.18.45.34l2.3,3.63,2.23-3.63a.57.57,0,0,1,.44-.34h2.66a.26.26,0,0,1,.27.23.35.35,0,0,1,0,.11l-3.92,6.2,4.08,6.45a.45.45,0,0,1,.05.18c0,.1-.09.18-.23.18"/><path class="c" d="M265.75,250.11a.28.28,0,0,0-.27.22L262.87,260c0,.2-.09.27-.25.27s-.21-.07-.25-.27l-2.61-9.65a.28.28,0,0,0-.27-.22h-2.57a.27.27,0,0,0-.27.34l3.22,11.17a2.71,2.71,0,0,0,2.77,1.95,2.79,2.79,0,0,0,2.77-1.94c0-.16,3.16-11.19,3.16-11.19a.27.27,0,0,0-.27-.33Z"/><path class="v" d="M170.38,334.76a7,7,0,0,0-7,7v40h15.92a7,7,0,0,0,7-7v-40Z"/><rect class="c" y="430.73" width="345.2" height="215.36"/><rect class="a" x="42" y="478.24" width="144.29" height="118.89" rx="7.5" ry="7.5"/><text class="w" transform="translate(52.21 500.66)"><tspan class="e">W</tspan><tspan class="f" x="13.28" y="0">e a</tspan><tspan class="g" x="32.58" y="0">r</tspan><tspan x="38.42" y="0">e The </tspan><tspan class="h" x="78.02" y="0">T</tspan><tspan x="85.58" y="0">rue</tspan><tspan x="0" y="17.8">C</tspan><tspan class="i" x="10.44" y="17.8">l</tspan><tspan x="14.83" y="17.8">oud Comme</tspan><tspan class="j" x="97.17" y="17.8">r</tspan><tspan x="103.01" y="17.8">ce</tspan><tspan x="0" y="35.6">Pl</tspan><tspan class="k" x="14.02" y="35.6">a</tspan><tspan x="21.91" y="35.6">t</tspan><tspan class="l" x="27.67" y="35.6">f</tspan><tspan x="33.36" y="35.6">orm</tspan></text><rect class="v" x="163.39" y="550.13" width="139.8" height="68.19" rx="7.5" ry="7.5" transform="translate(466.58 1168.45) rotate(180)"/><text class="x" transform="translate(230.5 566.99)"><tspan class="n">L</tspan><tspan x="4.27" y="0">o</tspan><tspan class="o" x="9.19" y="0">r</tspan><tspan class="p" x="12.42" y="0">em ipsum it</tspan><tspan class="q" x="55.35" y="0">’</tspan><tspan x="57.61" y="0">s</tspan><tspan x="1.15" y="9.83">a simp</tspan><tspan class="r" x="25.4" y="9.83">l</tspan><tspan x="27.71" y="9.83">y dum</tspan><tspan class="s" x="50.24" y="9.83">m</tspan><tspan x="57.19" y="9.83">y</tspan><tspan class="s" x="22.64" y="19.67">t</tspan><tspan class="t" x="25.74" y="19.67">e</tspan><tspan class="u" x="30.1" y="19.67">x</tspan><tspan x="34.66" y="19.67">t about</tspan></text><path class="a" d="M249.94,455.76H222.05a2.87,2.87,0,0,0-2.54,4.21l2.79,5.29h-5.06A1.86,1.86,0,0,0,215.6,468l9,17a1.86,1.86,0,0,0,3.29,0l2.44-4.58,3,5.79a2.88,2.88,0,0,0,5.08,0l14-26.31a2.8,2.8,0,0,0-2.47-4.11M237.41,467l-6,11.35a1.24,1.24,0,0,1-2.19,0l-6-11.3a1.24,1.24,0,0,1,1.1-1.82h12a1.21,1.21,0,0,1,1.06,1.77"/><path class="a" d="M279.61,468h-3.05v10.45a.36.36,0,0,1-.36.36h-2.35a.36.36,0,0,1-.36-.36V468h-3.07a.35.35,0,0,1-.36-.34v-1.85a.35.35,0,0,1,.36-.35h9.19a.37.37,0,0,1,.38.35v1.85a.37.37,0,0,1-.38.34"/><path class="a" d="M289.41,478.71a23.74,23.74,0,0,1-3.63.23c-2.32,0-4.37-.59-4.37-3.86v-6c0-3.27,2.07-3.85,4.39-3.85a22.93,22.93,0,0,1,3.61.24c.25,0,.35.12.35.36v1.67a.36.36,0,0,1-.35.36h-3.79c-.85,0-1.15.28-1.15,1.22v1.63h4.79a.36.36,0,0,1,.36.36v1.71a.36.36,0,0,1-.36.36h-4.79v1.9c0,.93.3,1.22,1.15,1.22h3.79a.36.36,0,0,1,.35.36v1.67c0,.24-.1.34-.35.38"/><path class="a" d="M303,478.78H300.1a.46.46,0,0,1-.46-.27l-2.48-3.93-2.24,3.84c-.13.22-.26.36-.45.36h-2.66a.24.24,0,0,1-.27-.23.61.61,0,0,1,0-.13l3.9-6.48-3.93-6.16a.3.3,0,0,1,0-.11.26.26,0,0,1,.27-.24h2.89c.2,0,.35.18.45.35l2.3,3.62,2.23-3.62a.56.56,0,0,1,.44-.35h2.66a.26.26,0,0,1,.27.24.61.61,0,0,1,0,.11l-3.92,6.2,4.08,6.44a.49.49,0,0,1,.05.18c0,.11-.09.18-.23.18"/><path class="a" d="M265.75,465.47a.28.28,0,0,0-.27.22l-2.61,9.65c0,.2-.09.27-.25.27s-.21-.07-.25-.27l-2.61-9.65a.28.28,0,0,0-.27-.22h-2.57a.28.28,0,0,0-.27.34L259.87,477a2.71,2.71,0,0,0,2.77,1.95,2.79,2.79,0,0,0,2.77-1.95c0-.15,3.16-11.18,3.16-11.18a.28.28,0,0,0-.27-.34Z"/><path class="b" d="M170.38,550.13a7,7,0,0,0-7,7v40h15.92a7,7,0,0,0,7-7v-40Z"/><rect class="v" y="646.09" width="345.2" height="215.36"/><rect class="c" x="42" y="693.6" width="144.29" height="118.89" rx="7.5" ry="7.5"/><text class="d" transform="translate(52.21 716.02)"><tspan class="e">W</tspan><tspan class="f" x="13.28" y="0">e a</tspan><tspan class="g" x="32.58" y="0">r</tspan><tspan x="38.42" y="0">e The </tspan><tspan class="h" x="78.02" y="0">T</tspan><tspan x="85.58" y="0">rue</tspan><tspan x="0" y="17.8">C</tspan><tspan class="i" x="10.44" y="17.8">l</tspan><tspan x="14.83" y="17.8">oud Comme</tspan><tspan class="j" x="97.17" y="17.8">r</tspan><tspan x="103.01" y="17.8">ce</tspan><tspan x="0" y="35.6">Pl</tspan><tspan class="k" x="14.02" y="35.6">a</tspan><tspan x="21.91" y="35.6">t</tspan><tspan class="l" x="27.67" y="35.6">f</tspan><tspan x="33.36" y="35.6">orm</tspan></text><rect class="a" x="163.39" y="765.49" width="139.8" height="68.19" rx="7.5" ry="7.5" transform="translate(466.58 1599.18) rotate(180)"/><text class="m" transform="translate(230.5 782.35)"><tspan class="n">L</tspan><tspan x="4.27" y="0">o</tspan><tspan class="o" x="9.19" y="0">r</tspan><tspan class="p" x="12.42" y="0">em ipsum it</tspan><tspan class="q" x="55.35" y="0">’</tspan><tspan x="57.61" y="0">s</tspan><tspan x="1.15" y="9.83">a simp</tspan><tspan class="r" x="25.4" y="9.83">l</tspan><tspan x="27.71" y="9.83">y dum</tspan><tspan class="s" x="50.24" y="9.83">m</tspan><tspan x="57.19" y="9.83">y</tspan><tspan class="s" x="22.64" y="19.67">t</tspan><tspan class="t" x="25.74" y="19.67">e</tspan><tspan class="u" x="30.1" y="19.67">x</tspan><tspan x="34.66" y="19.67">t about</tspan></text><path class="a" d="M249.94,671.13H222.05a2.87,2.87,0,0,0-2.54,4.21l2.79,5.28h-5.06a1.86,1.86,0,0,0-1.64,2.73l9,17a1.86,1.86,0,0,0,3.29,0l2.44-4.59,3,5.79a2.88,2.88,0,0,0,5.08,0l14-26.32a2.79,2.79,0,0,0-2.47-4.1m-12.53,11.24-6,11.35a1.24,1.24,0,0,1-2.19,0l-6-11.3a1.24,1.24,0,0,1,1.1-1.81h12a1.21,1.21,0,0,1,1.06,1.77"/><path class="a" d="M279.61,683.33h-3.05v10.46a.36.36,0,0,1-.36.36h-2.35a.36.36,0,0,1-.36-.36V683.33h-3.07a.34.34,0,0,1-.36-.34v-1.85a.34.34,0,0,1,.36-.34h9.19a.36.36,0,0,1,.38.34V683a.36.36,0,0,1-.38.34"/><path class="a" d="M289.41,694.07a23.27,23.27,0,0,1-3.63.24c-2.32,0-4.37-.6-4.37-3.86v-6c0-3.27,2.07-3.84,4.39-3.84a23.4,23.4,0,0,1,3.61.23c.25,0,.35.13.35.36v1.67a.36.36,0,0,1-.35.36h-3.79c-.85,0-1.15.29-1.15,1.22v1.64h4.79a.36.36,0,0,1,.36.36v1.7a.36.36,0,0,1-.36.36h-4.79v1.91c0,.93.3,1.22,1.15,1.22h3.79a.36.36,0,0,1,.35.36v1.67c0,.23-.1.34-.35.37"/><path class="a" d="M303,694.15H300.1a.47.47,0,0,1-.46-.27l-2.48-3.94-2.24,3.85c-.13.21-.26.36-.45.36h-2.66a.24.24,0,0,1-.27-.24.53.53,0,0,1,0-.12l3.9-6.49-3.93-6.16a.25.25,0,0,1,0-.11.26.26,0,0,1,.27-.23h2.89c.2,0,.35.18.45.34l2.3,3.63,2.23-3.63a.57.57,0,0,1,.44-.34h2.66a.26.26,0,0,1,.27.23.45.45,0,0,1,0,.11l-3.92,6.2,4.08,6.45a.45.45,0,0,1,.05.18c0,.1-.09.18-.23.18"/><path class="a" d="M265.75,680.83a.29.29,0,0,0-.27.23l-2.61,9.65c0,.2-.09.27-.25.27s-.21-.07-.25-.27l-2.61-9.65a.29.29,0,0,0-.27-.23h-2.57a.28.28,0,0,0-.27.35l3.22,11.17a2.71,2.71,0,0,0,2.77,1.95,2.79,2.79,0,0,0,2.77-1.94c0-.16,3.16-11.19,3.16-11.19a.28.28,0,0,0-.27-.34Z"/><path class="b" d="M170.38,765.49a7,7,0,0,0-7,7v40h15.92a7,7,0,0,0,7-7v-40Z"/></svg>